<?xml version="1.0" standalone="no"?>
<!DOCTYPE svg PUBLIC "-//W3C//DTD SVG 20010904//EN"
 "http://www.w3.org/TR/2001/REC-SVG-20010904/DTD/svg10.dtd">
<svg version="1.0" xmlns="http://www.w3.org/2000/svg"
 width="1131.000000pt" height="1131.000000pt" viewBox="0 0 1131.000000 1131.000000"
 preserveAspectRatio="xMidYMid meet">
<metadata>
Created by potrace 1.11, written by Peter Selinger 2001-2013
</metadata>
<g transform="translate(0.000000,1131.000000) scale(0.100000,-0.100000)"
fill="#000000" stroke="none">
<path d="M7693 10785 c-99 -21 -193 -77 -270 -159 l-67 -71 -1801 -5 c-1697
-5 -1802 -6 -1828 -23 -15 -9 -43 -46 -63 -81 l-37 -64 -461 -6 c-2029 -27
-2028 -27 -2184 -67 -115 -29 -204 -82 -309 -183 -77 -74 -100 -103 -133 -170
-50 -102 -76 -202 -92 -360 -11 -117 -13 -125 -35 -131 -35 -8 -53 -54 -53
-135 l0 -70 36 0 37 0 -7 -297 c-11 -496 -25 -1404 -36 -2448 l-12 -990 -25
-110 c-14 -60 -96 -399 -184 -753 -182 -734 -172 -662 -139 -1032 11 -124 62
-763 114 -1420 52 -657 100 -1235 105 -1285 8 -70 19 -106 46 -162 63 -128
162 -205 311 -243 76 -20 128 -20 5048 -20 5416 0 5036 -4 5163 56 117 55 219
189 244 317 5 28 52 585 104 1237 52 652 107 1332 122 1511 22 268 25 338 16
395 -5 38 -89 387 -186 775 l-175 705 -11 875 c-12 922 -26 1863 -37 2492 l-7
377 31 0 32 0 0 79 c0 64 -4 83 -21 105 -11 14 -26 26 -34 26 -9 0 -15 24 -20
83 -17 214 -60 378 -126 476 -80 120 -238 248 -351 285 -12 3 -18 16 -18 34 0
16 -7 53 -16 83 -56 191 -208 334 -399 374 -100 21 -2176 21 -2272 0z"/>
</g>
</svg>
